<svg xmlns="http://www.w3.org/2000/svg" width="120" height="120" viewBox="0 0 119.99999 119.99999"><g transform="translate(-1 -77.214)" stroke="#000"><ellipse cx="61.204" cy="137.21" rx="59.608" ry="37.438" fill="#fea245" fill-rule="evenodd" stroke-width="1.192"/><path d="M16.863 124.155c3.58-13.495 15.09-19.539 15.09-19.539m6.098 12.121c3.58-13.495 15.184-16.655 15.184-16.655m8.312 16.402c4.682-17.35 22.308-13.85 22.308-13.85m0 18.312c3.58-13.495 15.559-12.503 15.559-12.503" fill="none" stroke-width="1.157"/></g><g style="line-height:125%"><path d="M26.107 62.913h6.968v3.631q1.504-2.272 3.026-3.233 1.54-.96 3.704-.96 2.329 0 3.686 1.054 1.357 1.054 2.219 3.14 1.76-2.437 3.209-3.304 1.449-.89 3.576-.89 3.136 0 4.896 2.39 1.76 2.365 1.76 7.426v15.625H51.67V73.62q0-1.687-.514-2.507-.752-1.288-1.87-1.288-1.32 0-2.127 1.218-.807 1.218-.807 3.912v12.838H38.87V74.088q0-1.64-.147-2.226-.238-.937-.825-1.5-.587-.585-1.375-.585-1.284 0-2.11 1.242-.824 1.241-.824 4.076v12.697h-7.482V62.913zm37.776-9.464h7.463v6.489h-7.463v-6.49zm0 9.464h7.463v24.88h-7.463v-24.88zm11.351 12.51q0-5.693 3.007-9.37 3.008-3.702 8.124-3.702 5.85 0 8.839 4.334 2.402 3.49 2.402 8.597 0 5.74-2.989 9.418-2.97 3.654-8.234 3.654-4.694 0-7.592-3.045-3.557-3.772-3.557-9.886zm7.482-.024q0 3.327 1.045 4.92 1.064 1.593 2.659 1.593 1.614 0 2.64-1.57 1.046-1.57 1.046-5.036 0-3.233-1.045-4.803-1.046-1.593-2.586-1.593-1.632 0-2.696 1.617-1.063 1.593-1.063 4.872z" style="-inkscape-font-specification:'Arial Black, '" font-weight="400" font-size="110.092" font-family="Arial Black" letter-spacing="0" word-spacing="0"/></g><g fill="#fff" fill-rule="evenodd" stroke="#000"><path d="M74.126 67.982V44.16h24.65v23.822c-6.784-10.957-16.978-10.688-24.65 0z" stroke-width="1.157"/><path d="M97.637 35.472a6.792 8.664 0 0 0-5.165 3.043 6.792 8.664 0 0 0-5.123-2.993 6.792 8.664 0 0 0-5.326 3.304 6.792 8.664 0 0 0-5.117-2.981 6.792 8.664 0 0 0-6.792 8.664 6.792 8.664 0 0 0 6.792 8.664 6.792 8.664 0 0 0 5.327-3.305 6.792 8.664 0 0 0 5.116 2.983 6.792 8.664 0 0 0 5.165-3.043 6.792 8.664 0 0 0 5.123 2.993 6.792 8.664 0 0 0 6.792-8.664 6.792 8.664 0 0 0-6.792-8.665z" stroke-width="1.041"/></g></svg>